<svg xmlns="http://www.w3.org/2000/svg" width="75.696" height="35.76" viewBox="0 0 75.696 35.76">
  <path id="Path_1" data-name="Path 1" d="M44.544-.864q0,1.008-.816,1.008Q42,.144,40.3.1T36.912.048q-1.632,0-3.264.072T30.384.192a.725.725,0,0,1-.672-.312,1.3,1.3,0,0,1-.192-.7.69.69,0,0,1,.312-.6,1.123,1.123,0,0,1,.648-.216,7.818,7.818,0,0,1,.864.048,7.818,7.818,0,0,0,.864.048h.48a.923.923,0,0,0,.888-.936q.072-.84.072-1.416v-24.96q-2.736,6.816-5.544,13.56T22.608-1.68H18.864q-2.736-7.1-5.64-14.112T7.536-29.9q0,6.576.1,13.128t.1,13.128q0,.576.072,1.368a.787.787,0,0,0,.888.792q.624,0,1.2-.048t1.2-.048a.752.752,0,0,1,.576.264.868.868,0,0,1,.24.6,1.09,1.09,0,0,1-.192.552.559.559,0,0,1-.48.312Q10.368.144,9.5.1T7.776.048Q6.24.048,4.656.1T1.536.144q-.48,0-.624-.264a1.452,1.452,0,0,1-.144-.7.632.632,0,0,1,.312-.576,1.148,1.148,0,0,1,.6-.192,8.483,8.483,0,0,1,.888.048,8.483,8.483,0,0,0,.888.048A2.393,2.393,0,0,0,4.632-1.7q.36-.216.36-1.128,0-7.3.072-14.616t.072-14.616a1.922,1.922,0,0,0-.264-1.128,1.284,1.284,0,0,0-1.08-.36q-.48,0-.96.048t-.96.048a.921.921,0,0,1-.672-.288.921.921,0,0,1-.288-.672q0-.912.96-.912,1.152,0,2.328.048t2.328.048H9.336a27.271,27.271,0,0,0,2.808-.144l10.7,26.5Q25.44-15.456,28.3-21.96a135.31,135.31,0,0,0,5.016-13.272q1.1.048,2.232.072t2.28.024q1.488,0,3-.1t3-.1a.53.53,0,0,1,.528.312,1.43,1.43,0,0,1,.144.6,1.769,1.769,0,0,1-.144.648.526.526,0,0,1-.528.36q-.672,0-1.368-.024t-1.368-.024a.731.731,0,0,0-.7.408,1.774,1.774,0,0,0-.216.84q0,2.784-.024,5.64t-.024,5.688q0,4.224.024,8.448t.024,8.448a8.258,8.258,0,0,0,.072,1.008,2.706,2.706,0,0,0,.336,1.032.9.9,0,0,0,.84.456q.576,0,1.152-.048t1.2-.048a.826.826,0,0,1,.528.192A.639.639,0,0,1,44.544-.864ZM69.6-9.648a18.09,18.09,0,0,0-.408-3.816,6.765,6.765,0,0,0-1.584-3.192,4.592,4.592,0,0,0-3.576-1.3q-1.632,0-3.24.072t-3.24.072V-2.784q0,1.344.7,1.584A5.445,5.445,0,0,0,60-.96h1.176q.6,0,1.176-.048A7.271,7.271,0,0,0,66.36-2.352a7.447,7.447,0,0,0,2.424-3.12A10.566,10.566,0,0,0,69.6-9.648ZM67.2-26.784a8.8,8.8,0,0,0-.84-4.3,4.181,4.181,0,0,0-2.568-1.968,15.688,15.688,0,0,0-4.32-.5q-.48,0-.96.024t-.96.072v14.208h1.392q.96,0,2.112-.072a9.475,9.475,0,0,0,2.232-.408,4.3,4.3,0,0,0,1.8-1.056A6.494,6.494,0,0,0,66.7-23.568,11.187,11.187,0,0,0,67.2-26.784Zm9.264,16.32A11.022,11.022,0,0,1,74.952-4.68,9.406,9.406,0,0,1,70.368-.864,12.573,12.573,0,0,1,66.5.12,39.959,39.959,0,0,1,62.5.336h-.864a7.818,7.818,0,0,1-.864-.048q-3.5-.144-7.056-.144-1.344,0-2.688.12t-2.736.12a.432.432,0,0,1-.336-.168.544.544,0,0,1-.144-.36.625.625,0,0,1,.456-.7,10.689,10.689,0,0,1,1.08-.216A2.193,2.193,0,0,0,50.5-1.632a2.707,2.707,0,0,0,.624-1.824q.048-.576.048-1.152V-5.76q0-6.1-.024-12.168T51.12-30.1q0-2.112-.72-2.592a5.246,5.246,0,0,0-2.688-.48.868.868,0,0,1-.6-.24.752.752,0,0,1-.264-.576q0-.912,1.008-.912.96,0,1.968.1t1.968.1q2.448,0,4.9-.168t4.9-.36q.48-.048.936-.072t.888-.024a19.909,19.909,0,0,1,5.16.648A7.742,7.742,0,0,1,72.5-32.3a7.359,7.359,0,0,1,1.512,4.992,6.92,6.92,0,0,1-.984,3.552,9.221,9.221,0,0,1-2.472,2.784,5.458,5.458,0,0,1-1.056.744q-.576.312-1.2.6-.1.048-.36.168t-.264.312q0,.144.264.216a2.261,2.261,0,0,1,.36.12q.768.192,1.488.408a7.863,7.863,0,0,1,1.44.6,10.59,10.59,0,0,1,3.72,2.928A6.814,6.814,0,0,1,76.464-10.464Z" transform="translate(-0.768 35.376)"/>
</svg>
